<mxfile host="Electron" agent="Mozilla/5.0 (Windows NT 10.0; Win64; x64) AppleWebKit/537.36 (KHTML, like Gecko) draw.io/24.7.8 Chrome/128.0.6613.36 Electron/32.0.1 Safari/537.36" version="24.7.8">
  <diagram id="tFx8NVUHpEqBDBRQr2UT" name="Page-1">
    <mxGraphModel dx="780" dy="514" grid="1" gridSize="10" guides="1" tooltips="1" connect="1" arrows="1" fold="1" page="1" pageScale="1" pageWidth="850" pageHeight="1100" math="0" shadow="0">
      <root>
        <mxCell id="0" />
        <mxCell id="1" parent="0" />
        <mxCell id="s9tLqinfn0IwJTN6Mwgx-2" value="Scheduling Constraints" style="rounded=1;whiteSpace=wrap;html=1;absoluteArcSize=1;arcSize=8;container=1;collapsible=0;recursiveResize=0;dashed=1;align=left;verticalAlign=top;spacing=0;spacingLeft=4;spacingTop=-2;spacingBottom=0;" parent="1" vertex="1">
          <mxGeometry x="280" y="100" width="230" height="130" as="geometry" />
        </mxCell>
        <mxCell id="VfGG5elrbJ5kQVskZP9h-2" value="Environments" style="rounded=1;whiteSpace=wrap;html=1;absoluteArcSize=1;arcSize=8;container=1;collapsible=0;recursiveResize=0;dashed=1;align=left;verticalAlign=top;spacing=0;spacingLeft=4;spacingTop=-2;spacingBottom=0;" vertex="1" parent="s9tLqinfn0IwJTN6Mwgx-2">
          <mxGeometry x="10" y="20" width="210" height="100" as="geometry" />
        </mxCell>
        <mxCell id="VfGG5elrbJ5kQVskZP9h-3" value="Azure" style="rounded=1;whiteSpace=wrap;html=1;absoluteArcSize=1;arcSize=8;container=1;collapsible=0;recursiveResize=0;dashed=1;align=left;verticalAlign=top;spacing=0;spacingLeft=4;spacingTop=-2;spacingBottom=0;" vertex="1" parent="VfGG5elrbJ5kQVskZP9h-2">
          <mxGeometry x="10" y="20" width="190" height="70" as="geometry" />
        </mxCell>
        <mxCell id="s9tLqinfn0IwJTN6Mwgx-1" value="&lt;p style=&quot;line-height: 80%;&quot;&gt;TLS 1.0 Retirement on Azure&lt;br&gt;&lt;font style=&quot;font-size: 8px;&quot;&gt;(2025-08-31)&lt;/font&gt;&lt;/p&gt;" style="rounded=0;whiteSpace=wrap;html=1;spacingBottom=0;spacingLeft=4;" parent="VfGG5elrbJ5kQVskZP9h-3" vertex="1">
          <mxGeometry x="10" y="20" width="80" height="40" as="geometry" />
        </mxCell>
        <mxCell id="VfGG5elrbJ5kQVskZP9h-1" value="&lt;p style=&quot;line-height: 80%;&quot;&gt;TLS 1.1 Retirement on Azure&amp;nbsp;&amp;nbsp;&lt;br&gt;&lt;font style=&quot;font-size: 8px;&quot;&gt;(2025-08-31)&lt;/font&gt;&lt;br&gt;&lt;/p&gt;" style="rounded=0;whiteSpace=wrap;html=1;spacingBottom=0;spacingLeft=4;" vertex="1" parent="VfGG5elrbJ5kQVskZP9h-3">
          <mxGeometry x="100" y="20" width="80" height="40" as="geometry" />
        </mxCell>
      </root>
    </mxGraphModel>
  </diagram>
</mxfile>
